<svg width="28" height="28" viewBox="0 0 28 28" fill="none" xmlns="http://www.w3.org/2000/svg">
<path d="M3.79 2.77201L24.86 12.85C25.0727 12.9518 25.2523 13.1117 25.3779 13.3112C25.5036 13.5107 25.5703 13.7417 25.5703 13.9775C25.5703 14.2133 25.5036 14.4443 25.3779 14.6438C25.2523 14.8433 25.0727 15.0032 24.86 15.105L3.79 25.183C3.57391 25.2866 3.33261 25.3259 3.09483 25.2962C2.85705 25.2665 2.63281 25.1691 2.44883 25.0155C2.26485 24.862 2.12887 24.6588 2.0571 24.4302C1.98532 24.2016 1.98078 23.9571 2.044 23.726L4.704 13.978L2.044 4.22801C1.98129 3.99701 1.98622 3.75285 2.05821 3.52457C2.1302 3.29629 2.26622 3.09347 2.45011 2.94024C2.63399 2.787 2.85801 2.68978 3.09553 2.66014C3.33305 2.63049 3.57409 2.66967 3.79 2.77301V2.77201ZM3.635 4.36201L6.058 13.249H17C17.1815 13.2491 17.3569 13.315 17.4935 13.4345C17.6302 13.5541 17.7188 13.7191 17.743 13.899L17.75 13.999C17.7502 14.1804 17.6847 14.3558 17.5656 14.4926C17.4464 14.6294 17.2817 14.7183 17.102 14.743L17 14.75L6.046 14.749L3.636 23.594L23.742 13.977L3.635 4.36101V4.36201Z" fill="#6D6D6D"/>
</svg>
