<svg width="175" height="175" viewBox="0 0 175 175" fill="none" xmlns="http://www.w3.org/2000/svg">
<circle cx="87.1098" cy="87.6471" r="86.1219" stroke="#947BF5" stroke-width="2"/>
<path d="M37.3797 40.9337L35.6104 42.92L43.8989 50.3031L45.6682 48.3168L37.3797 40.9337ZM41.1842 49.4116C38.7161 51.07 36.4076 50.835 34.9389 49.6875L37.4 46.9246L35.8468 45.5411L33.3858 48.304L31.967 47.0402L30.211 49.0115L31.6298 50.2753L29.1554 53.053L30.7086 54.4365L33.1829 51.6588C34.6397 53.0903 35.2568 55.4345 33.9402 58.1454L36.3032 58.5897C37.2902 56.5495 37.289 54.5664 36.565 52.8233C38.272 53.1922 40.1093 52.8735 41.9243 51.6779L41.1842 49.4116ZM45.4886 56.4867C43.8922 58.2788 42.6973 58.9286 41.9357 58.2501C41.189 57.585 41.6819 56.3099 43.2783 54.5178C44.8613 52.7406 46.0711 52.1041 46.8179 52.7693C47.5795 53.4477 47.0716 54.7095 45.4886 56.4867ZM41.7699 53.1742C39.1759 56.0864 38.5502 58.7432 40.193 60.2065C41.8656 61.6965 44.4028 60.7424 46.9969 57.8303C49.5777 54.933 50.2332 52.3028 48.5605 50.8129C46.9178 49.3496 44.3507 50.277 41.7699 53.1742Z" fill="#947BF5"/>
<path d="M71.7801 31.9057C68.6922 31.9338 66.871 30.2965 66.2586 28.3715L69.7381 27.3024L69.1272 25.3142L65.6477 26.3832L65.0486 24.4332L62.525 25.2085L63.1241 27.1585L59.6829 28.2158L60.2938 30.2041L63.735 29.1468C64.362 31.2557 63.7787 33.7155 61.2253 35.4833L63.0789 37.0898C64.8733 35.848 65.8504 34.1251 66.1158 32.2651C67.3769 33.5096 69.0735 34.2646 71.1806 34.2449L71.7801 31.9057ZM67.233 36.6504L64.7094 37.4257L66.3659 42.817L78.3529 39.1341L77.7361 37.1267L68.2727 40.0343L67.233 36.6504ZM74.0097 27.2454L72.4061 22.0261L69.8825 22.8015L73.9003 35.8782L76.4238 35.1029L74.6441 29.3101L76.9765 28.5935L76.3421 26.5287L74.0097 27.2454Z" fill="#947BF5"/>
<path d="M100.749 31.8843C99.8386 31.47 99.5146 30.4436 100.086 29.1876C100.658 27.9316 101.653 27.4835 102.563 27.8978C103.473 28.312 103.789 29.3566 103.217 30.6126C102.646 31.8686 101.659 32.2985 100.749 31.8843ZM103.475 25.8954C101.327 24.9178 99.0435 25.8783 97.9748 28.2265C96.9143 30.5565 97.6894 32.909 99.8374 33.8866C101.985 34.8643 104.268 33.9037 105.329 31.5737C106.398 29.2255 105.623 26.873 103.475 25.8954ZM106.804 21.7193L104.437 20.6422L103.493 22.7174L100.635 21.4166L99.7648 23.328L107.774 26.9734L108.644 25.0621L105.859 23.7945L106.804 21.7193ZM113.918 24.3861L110.803 31.2305L109.529 30.6505L112.495 24.1338L110.256 23.1147L103.089 38.8605L105.328 39.8796L108.65 32.5801L109.925 33.16L106.287 41.1512L108.563 42.1869L116.193 25.4217L113.918 24.3861Z" fill="#947BF5"/>
<path d="M134.602 51.6669C134.833 52.2757 135.126 52.8702 135.501 53.4846C135.877 54.099 136.282 54.6481 136.718 55.1317L133.714 56.9666L131.598 53.5019L134.602 51.6669ZM142.175 49.4082C143.509 51.5928 143.518 53.6028 141.948 54.562C140.395 55.5107 138.594 54.5954 137.259 52.4108C135.925 50.2261 135.943 48.2228 137.496 47.2741C139.067 46.3149 140.84 47.2235 142.175 49.4082ZM135.08 59.2025L138.92 56.8567C140.374 57.5861 141.938 57.6148 143.303 56.7808C145.881 55.2065 146.025 51.7204 143.95 48.3239C141.886 44.9445 138.718 43.481 136.141 45.0553C134.765 45.8722 134.077 47.2772 134.072 48.9202L130.232 51.266L128.314 48.1255L126.488 49.2411L135.183 63.4755L137.009 62.36L135.08 59.2025Z" fill="#947BF5"/>
<g clip-path="url(#clip0_82_3797)">
<path d="M87.874 124.234C79.1839 124.234 70.8496 120.782 64.7048 114.637C58.5599 108.493 55.1077 100.158 55.1077 91.4682C55.1077 82.7781 58.5599 74.4438 64.7048 68.299C70.8496 62.1541 79.1839 58.702 87.874 58.702C96.5642 58.702 104.898 62.1541 111.043 68.299C117.188 74.4438 120.64 82.7781 120.64 91.4682C120.64 100.158 117.188 108.493 111.043 114.637C104.898 120.782 96.5642 124.234 87.874 124.234ZM87.874 128.915C97.8056 128.915 107.33 124.97 114.353 117.947C121.376 110.925 125.321 101.4 125.321 91.4682C125.321 81.5366 121.376 72.0118 114.353 64.9891C107.33 57.9664 97.8056 54.0211 87.874 54.0211C77.9424 54.0211 68.4176 57.9664 61.3949 64.9891C54.3722 72.0118 50.4268 81.5366 50.4268 91.4682C50.4268 101.4 54.3722 110.925 61.3949 117.947C68.4176 124.97 77.9424 128.915 87.874 128.915V128.915Z" fill="#947BF5"/>
<path d="M70.4842 98.8032C71.0217 98.4928 71.6605 98.4087 72.2601 98.5694C72.8596 98.73 73.3708 99.1222 73.6812 99.6598C75.1188 102.152 77.1874 104.221 79.679 105.659C82.1705 107.097 84.9969 107.853 87.8737 107.851C90.7504 107.853 93.5769 107.097 96.0684 105.659C98.5599 104.221 100.629 102.152 102.066 99.6598C102.219 99.3915 102.423 99.156 102.667 98.9669C102.911 98.7777 103.19 98.6388 103.488 98.5579C103.785 98.477 104.096 98.4559 104.402 98.4956C104.708 98.5354 105.004 98.6354 105.271 98.7897C105.538 98.944 105.772 99.1497 105.96 99.3949C106.147 99.6401 106.285 99.9199 106.363 100.218C106.442 100.517 106.461 100.828 106.42 101.134C106.378 101.439 106.276 101.734 106.12 102C104.271 105.204 101.612 107.864 98.4088 109.712C95.2057 111.561 91.5721 112.534 87.8737 112.532C84.1753 112.534 80.5417 111.561 77.3386 109.712C74.1355 107.864 71.4759 105.204 69.6276 102C69.3172 101.463 69.2331 100.824 69.3937 100.224C69.5544 99.6247 69.9466 99.1136 70.4842 98.8032ZM83.1928 84.4469C83.1928 88.3227 81.0957 91.4682 78.5119 91.4682C75.928 91.4682 73.831 88.3227 73.831 84.4469C73.831 80.5711 75.928 77.4255 78.5119 77.4255C81.0957 77.4255 83.1928 80.5711 83.1928 84.4469ZM101.916 84.4469C101.916 88.3227 99.8193 91.4682 97.2355 91.4682C94.6516 91.4682 92.5546 88.3227 92.5546 84.4469C92.5546 80.5711 94.6516 77.4255 97.2355 77.4255C99.8193 77.4255 101.916 80.5711 101.916 84.4469Z" fill="#947BF5"/>
</g>
<g clip-path="url(#clip1_82_3797)">
<path d="M51.8869 97.2052C52.1291 93.7217 55.4337 91.0281 58.9954 91.9148L59.9678 92.1607C61.6927 92.5929 63.2239 93.8596 63.7381 95.7559C64.5577 98.796 65.7238 105.111 63.9691 112.558C64.5177 112.483 65.068 112.419 65.6195 112.368C68.2759 112.126 71.8376 112.1 74.9931 113.151C76.923 113.795 78.6964 115.688 79.4639 117.893C80.1494 119.876 80.06 122.223 78.5921 124.35C78.8082 124.793 78.9758 125.252 79.1062 125.702C79.3931 126.708 79.5272 127.815 79.5272 128.891C79.5272 129.968 79.3931 131.075 79.1062 132.081C78.9609 132.584 78.7709 133.098 78.5101 133.586C79.1398 135.028 78.9088 136.637 78.4989 137.863C78.0794 139.073 77.4653 140.207 76.6808 141.22C76.882 141.786 76.964 142.382 76.964 142.952C76.964 144.088 76.6324 145.28 76.0214 146.35C74.7771 148.533 72.307 150.314 68.8161 150.314H55.7765C53.5225 150.314 51.79 150.012 50.3147 149.502C49.0461 149.038 47.8338 148.433 46.7009 147.698L46.522 147.587C44.6443 146.443 42.8002 145.318 38.8175 144.897C35.9637 144.591 33.4228 142.289 33.4228 139.137V124.234C33.4228 121.068 35.9748 118.899 38.4784 118.218C41.6415 117.353 44.3426 115.286 46.4214 112.965C48.5078 110.629 49.8267 108.196 50.2924 106.858C51.0337 104.716 51.6187 101.125 51.8869 97.2089V97.2052Z" fill="white"/>
</g>
<g clip-path="url(#clip2_82_3797)">
<path d="M59.8421 89.3515C56.1891 88.4383 52.7959 91.2009 52.5514 94.7775C52.2763 98.7935 51.6725 102.481 50.9159 104.674C50.4383 106.05 49.0856 108.545 46.942 110.937C44.8136 113.318 42.0433 115.438 38.7991 116.325C36.2313 117.024 33.6138 119.248 33.6138 122.496V137.784C33.6138 141.013 36.2198 143.379 39.1468 143.688C43.2355 144.124 45.1231 145.274 47.0489 146.451L47.2324 146.565C48.2717 147.196 49.441 147.895 50.9389 148.415C52.4559 148.935 54.2289 149.244 56.5407 149.244H69.9146C73.495 149.244 76.0246 147.421 77.3047 145.178C77.9234 144.12 78.2578 142.919 78.2753 141.693C78.2753 141.113 78.1874 140.501 77.9811 139.92C78.7491 138.915 79.4331 137.712 79.8458 136.478C80.2661 135.217 80.503 133.566 79.8611 132.087C80.1247 131.59 80.3196 131.059 80.4686 130.547C80.7628 129.515 80.9004 128.377 80.9004 127.272C80.9004 126.172 80.7628 125.037 80.4686 124.002C80.335 123.526 80.1585 123.063 79.9413 122.618C80.6104 121.666 81.0409 120.568 81.1965 119.414C81.3521 118.261 81.2283 117.088 80.8354 115.992C80.0483 113.73 78.2294 111.789 76.2501 111.132C73.0136 110.054 69.3606 110.077 66.6361 110.326C66.0705 110.377 65.5061 110.44 64.9433 110.517C66.2689 104.84 66.1876 98.9254 64.7064 93.2873C64.4487 92.3839 63.9544 91.5658 63.2746 90.9175C62.5947 90.2692 61.754 89.8144 60.8394 89.5999L59.8421 89.3515ZM69.9146 145.427H56.5407C54.5919 145.427 53.243 145.163 52.1846 144.8C51.1108 144.429 50.2511 143.929 49.2194 143.298L49.0665 143.207C46.9458 141.911 44.4888 140.413 39.5519 139.89C38.2794 139.752 37.435 138.782 37.435 137.788V122.496C37.435 121.525 38.2985 120.421 39.8041 120.012C43.9882 118.866 47.3585 116.206 49.7925 113.486C52.219 110.773 53.8582 107.85 54.5231 105.928C55.4516 103.253 56.0783 99.1718 56.3649 95.0374C56.4604 93.6541 57.7405 92.7676 58.9136 93.058L59.9147 93.3102C60.5261 93.4631 60.9006 93.8566 61.0152 94.2846C62.5757 100.23 62.3833 106.501 60.4611 112.339C60.3523 112.664 60.3328 113.012 60.4047 113.347C60.4765 113.682 60.637 113.991 60.8694 114.243C61.1019 114.495 61.3976 114.679 61.7258 114.777C62.0539 114.875 62.4024 114.883 62.7347 114.8L62.7462 114.796L62.7997 114.785L63.0213 114.732C64.328 114.454 65.6498 114.254 66.98 114.132C69.5134 113.902 72.5474 113.925 75.0426 114.758C75.7113 114.98 76.7621 115.905 77.2207 117.242C77.6295 118.419 77.5531 119.802 76.2042 121.147L74.8554 122.496L76.2042 123.849C76.3685 124.013 76.6055 124.388 76.7927 125.052C76.9761 125.691 77.0793 126.466 77.0793 127.272C77.0793 128.083 76.9761 128.854 76.7927 129.496C76.6016 130.161 76.3685 130.536 76.2042 130.7L74.8554 132.049L76.2042 133.402C76.3838 133.581 76.6207 134.078 76.2233 135.266C75.8092 136.419 75.151 137.468 74.2937 138.342L72.9448 139.691L74.2937 141.044C74.3166 141.063 74.4503 141.235 74.4503 141.693C74.4334 142.254 74.2743 142.801 73.988 143.283C73.3575 144.384 72.0659 145.423 69.9146 145.423V145.427Z" fill="#947BF5"/>
</g>
<defs>
<clipPath id="clip0_82_3797">
<rect width="74.8943" height="74.8943" fill="white" transform="translate(50.4268 54.0211)"/>
</clipPath>
<clipPath id="clip1_82_3797">
<rect width="59.6098" height="59.6098" fill="white" transform="translate(25.9716 90.704)"/>
</clipPath>
<clipPath id="clip2_82_3797">
<rect width="61.1382" height="61.1382" fill="white" transform="translate(25.9716 89.1755)"/>
</clipPath>
</defs>
</svg>
