<svg width="90" height="90" viewBox="0 0 90 90" fill="none" xmlns="http://www.w3.org/2000/svg">
<path d="M45 45C49.4755 45 53.7678 43.2221 56.9324 40.0574C60.0971 36.8927 61.875 32.6005 61.875 28.125C61.875 23.6495 60.0971 19.3573 56.9324 16.1926C53.7678 13.0279 49.4755 11.25 45 11.25C40.5245 11.25 36.2323 13.0279 33.0676 16.1926C29.9029 19.3573 28.125 23.6495 28.125 28.125C28.125 32.6005 29.9029 36.8927 33.0676 40.0574C36.2323 43.2221 40.5245 45 45 45ZM56.25 28.125C56.25 31.1087 55.0647 33.9702 52.9549 36.08C50.8452 38.1897 47.9837 39.375 45 39.375C42.0163 39.375 39.1548 38.1897 37.045 36.08C34.9353 33.9702 33.75 31.1087 33.75 28.125C33.75 25.1413 34.9353 22.2798 37.045 20.17C39.1548 18.0603 42.0163 16.875 45 16.875C47.9837 16.875 50.8452 18.0603 52.9549 20.17C55.0647 22.2798 56.25 25.1413 56.25 28.125ZM78.75 73.125C78.75 78.75 73.125 78.75 73.125 78.75H16.875C16.875 78.75 11.25 78.75 11.25 73.125C11.25 67.5 16.875 50.625 45 50.625C73.125 50.625 78.75 67.5 78.75 73.125ZM73.125 73.1025C73.1194 71.7188 72.2588 67.5562 68.445 63.7425C64.7775 60.075 57.8756 56.25 45 56.25C32.1187 56.25 25.2225 60.075 21.555 63.7425C17.7413 67.5562 16.8863 71.7188 16.875 73.1025H73.125Z" fill="black"/>
</svg>
