<svg width="96" height="96" viewBox="0 0 96 96" fill="none" xmlns="http://www.w3.org/2000/svg">
<path d="M48 9C42.3914 9.00472 36.8498 10.2191 31.7531 12.5603C26.6565 14.9015 22.1248 18.3144 18.4672 22.5663C14.8096 26.8181 12.112 31.8089 10.5586 37.1981C9.00516 42.5873 8.63239 48.2481 9.46571 53.7945C10.299 59.3409 12.3188 64.6423 15.3873 69.337C18.4558 74.0318 22.5008 78.0095 27.2464 80.9988C31.992 83.9882 37.3265 85.9187 42.8861 86.6589C48.4457 87.399 54.0995 86.9314 59.4619 85.2877C59.9303 85.144 60.3563 84.8877 60.7027 84.5411L84.5415 60.7012C84.888 60.3548 85.1444 59.9288 85.2881 59.4604C87.0752 53.627 87.4697 47.4558 86.4402 41.4423C85.4106 35.4288 82.9856 29.7405 79.3598 24.8338C75.734 19.9271 71.0083 15.9388 65.5621 13.189C60.116 10.4392 54.101 9.00447 48 9ZM79.7587 56.9985L57 79.7587C49.9807 81.7418 42.5018 81.3406 35.7349 78.618C28.9681 75.8953 23.2954 71.0049 19.6056 64.7129C15.9158 58.421 14.4172 51.0828 15.3447 43.8479C16.2721 36.6131 19.5732 29.8902 24.7307 24.7323C29.8883 19.5745 36.611 16.2731 43.8459 15.3453C51.0807 14.4175 58.4189 15.9157 64.7111 19.6052C71.0032 23.2947 75.8939 28.9671 78.6169 35.7339C81.3399 42.5006 81.7415 49.9794 79.7587 56.9989V56.9985ZM30 40.5C30 39.61 30.2639 38.74 30.7584 37.9999C31.2528 37.2599 31.9556 36.6831 32.7779 36.3425C33.6002 36.0019 34.505 35.9128 35.3779 36.0865C36.2508 36.2601 37.0526 36.6887 37.682 37.318C38.3113 37.9474 38.7399 38.7492 38.9135 39.6221C39.0872 40.495 38.998 41.3998 38.6574 42.2221C38.3169 43.0443 37.7401 43.7471 37.0001 44.2416C36.26 44.7361 35.39 45 34.5 45C33.3065 45 32.1619 44.5259 31.318 43.682C30.4741 42.8381 30 41.6935 30 40.5ZM57 40.5C57 39.61 57.2639 38.74 57.7584 37.9999C58.2528 37.2599 58.9556 36.6831 59.7779 36.3425C60.6002 36.0019 61.505 35.9128 62.3779 36.0865C63.2508 36.2601 64.0526 36.6887 64.682 37.318C65.3113 37.9474 65.7399 38.7492 65.9135 39.6221C66.0872 40.495 65.998 41.3998 65.6574 42.2221C65.3168 43.0443 64.7401 43.7471 64.0001 44.2416C63.26 44.7361 62.39 45 61.5 45C60.3065 45 59.1619 44.5259 58.318 43.682C57.4741 42.8381 57 41.6935 57 40.5ZM66.1894 58.5011C64.3454 61.6933 61.6938 64.344 58.5009 66.187C55.3081 68.0299 51.6865 69 48 69C44.3135 69 40.6919 68.0299 37.499 66.187C34.3062 64.344 31.6546 61.6933 29.8106 58.5011C29.4201 57.8128 29.3173 56.9981 29.5247 56.2344C29.7321 55.4707 30.2329 54.8199 30.9179 54.4237C31.603 54.0275 32.4168 53.918 33.1822 54.1191C33.9476 54.3202 34.6025 54.8156 35.0044 55.4974C36.3214 57.7786 38.2158 59.6729 40.497 60.9899C42.7783 62.307 45.366 63.0003 48.0001 63.0003C50.6342 63.0002 53.2219 62.3068 55.5031 60.9897C57.7843 59.6726 59.6786 57.7782 60.9956 55.497C61.1911 55.1525 61.4528 54.8502 61.7657 54.6074C62.0786 54.3646 62.4364 54.1861 62.8186 54.0823C63.2008 53.9785 63.5998 53.9514 63.9925 54.0026C64.3853 54.0538 64.764 54.1822 65.1068 54.3805C65.4496 54.5788 65.7498 54.843 65.99 55.1579C66.2303 55.4727 66.4057 55.8321 66.5064 56.2151C66.607 56.5982 66.6308 56.9973 66.5764 57.3896C66.522 57.7819 66.3905 58.1596 66.1894 58.5007V58.5011Z" fill="#FFB800"/>
</svg>
