<svg width="18" height="18" viewBox="0 0 18 18" fill="none" xmlns="http://www.w3.org/2000/svg">
<path d="M0.279133 17.7177L0.282439 17.721C0.370108 17.8093 0.47437 17.8794 0.58923 17.9273C0.704089 17.9752 0.82728 17.9999 0.95172 18C1.05643 17.9999 1.16042 17.9827 1.25953 17.9489L6.65597 16.1183L17.0114 5.76276C17.6444 5.12965 18 4.27098 18 3.37566C18 2.48034 17.6443 1.62171 17.0112 0.988647C16.378 0.355588 15.5194 -3.91938e-05 14.6241 3.23986e-09C13.7288 3.92002e-05 12.8701 0.355741 12.2371 0.988856L1.88169 11.3444L0.051238 16.7407C-0.00642128 16.9085 -0.0156248 17.0892 0.0246829 17.262C0.0649905 17.4348 0.153177 17.5927 0.279133 17.7177ZM13.097 1.84872C13.5026 1.44626 14.0511 1.2209 14.6225 1.222C15.1938 1.22309 15.7415 1.45056 16.1455 1.85458C16.5495 2.2586 16.7769 2.80625 16.778 3.37762C16.7791 3.94898 16.5537 4.4975 16.1512 4.90305L14.7895 6.2648L11.7352 3.21048L13.097 1.84872ZM2.94231 12.0035L10.8753 4.07035L13.9296 7.12467L5.99657 15.0578L1.3743 16.6258L2.94231 12.0035Z" fill="#919191"/>
</svg>
